<?xml version="1.0" encoding="UTF-8"?>
<!-- Generated by Pixelmator Pro 3.6.16 -->
<svg width="680" height="754" viewBox="0 0 680 754" xmlns="http://www.w3.org/2000/svg">
    <text id="LAYER-1--" xml:space="preserve" x="223.907471" y="34" font-family="Helvetica" font-size="13" fill="#3d3d3a">LAYER 1 · 核心专业能力 · 求职直接相关</text>
    <path id="Path" fill="#1f1e1d" fill-opacity="0.14902" stroke="none" d="M 21 37.77002 L 659 37.77002 C 659.552307 37.77002 660 38.217712 660 38.77002 L 660 38.77002 C 660 39.322266 659.552307 39.77002 659 39.77002 L 21 39.77002 C 20.447716 39.77002 20 39.322266 20 38.77002 L 20 38.77002 C 20 38.217712 20.447716 37.77002 21 37.77002 Z"/>
    <g id="Group">
        <path id="path1" fill="#e1f5ee" stroke="#0f6e56" stroke-width="0.5" d="M 34 49.77002 L 314 49.77002 C 319.522858 49.77002 324 54.247131 324 59.77002 L 324 259.77002 C 324 265.292847 319.522858 269.77002 314 269.77002 L 34 269.77002 C 28.477152 269.77002 24 265.292847 24 259.77002 L 24 59.77002 C 24 54.247131 28.477152 49.77002 34 49.77002 Z"/>
        <text id="Data-Engineering-" xml:space="preserve" x="102.962402" y="78" font-family="Helvetica" font-size="14" fill="#085041">Data Engineering 核心</text>
    </g>
    <g id="g1">
        <path id="path2" fill="#e1f5ee" stroke="#0f6e56" stroke-width="0.5" d="M 42 81.77002 L 158 81.77002 C 161.313705 81.77002 164 84.456299 164 87.77002 L 164 107.77002 C 164 111.083679 161.313705 113.77002 158 113.77002 L 42 113.77002 C 38.686291 113.77002 36 111.083679 36 107.77002 L 36 87.77002 C 36 84.456299 38.686291 81.77002 42 81.77002 Z"/>
        <text id="Data-Modeling" xml:space="preserve" x="59.310547" y="103" font-family="Helvetica" font-size="12" fill="#0f6e56">Data Modeling</text>
    </g>
    <g id="g2">
        <path id="path3" fill="#e1f5ee" stroke="#0f6e56" stroke-width="0.5" d="M 182 81.77002 L 306 81.77002 C 309.313721 81.77002 312 84.456299 312 87.77002 L 312 107.77002 C 312 111.083679 309.313721 113.77002 306 113.77002 L 182 113.77002 C 178.686295 113.77002 176 111.083679 176 107.77002 L 176 87.77002 C 176 84.456299 178.686295 81.77002 182 81.77002 Z"/>
        <text id="Data-Warehouse" xml:space="preserve" x="197.196289" y="103" font-family="Helvetica" font-size="12" fill="#0f6e56">Data Warehouse</text>
    </g>
    <g id="g3">
        <path id="path4" fill="#e1f5ee" stroke="#0f6e56" stroke-width="0.5" d="M 42 123.77002 L 158 123.77002 C 161.313705 123.77002 164 126.456299 164 129.77002 L 164 149.77002 C 164 153.083679 161.313705 155.77002 158 155.77002 L 42 155.77002 C 38.686291 155.77002 36 153.083679 36 149.77002 L 36 129.77002 C 36 126.456299 38.686291 123.77002 42 123.77002 Z"/>
        <text id="Lakehouse" xml:space="preserve" x="69.641602" y="145" font-family="Helvetica" font-size="12" fill="#0f6e56">Lakehouse</text>
    </g>
    <g id="g4">
        <path id="path5" fill="#e1f5ee" stroke="#0f6e56" stroke-width="0.5" d="M 182 123.77002 L 306 123.77002 C 309.313721 123.77002 312 126.456299 312 129.77002 L 312 149.77002 C 312 153.083679 309.313721 155.77002 306 155.77002 L 182 155.77002 C 178.686295 155.77002 176 153.083679 176 149.77002 L 176 129.77002 C 176 126.456299 178.686295 123.77002 182 123.77002 Z"/>
        <text id="Big-Data-Spark" xml:space="preserve" x="198.650391" y="145" font-family="Helvetica" font-size="12" fill="#0f6e56">Big Data (Spark)</text>
    </g>
    <g id="g5">
        <path id="path6" fill="#e1f5ee" stroke="#0f6e56" stroke-width="0.5" d="M 42 165.77002 L 158 165.77002 C 161.313705 165.77002 164 168.456299 164 171.77002 L 164 191.77002 C 164 195.083679 161.313705 197.77002 158 197.77002 L 42 197.77002 C 38.686291 197.77002 36 195.083679 36 191.77002 L 36 171.77002 C 36 168.456299 38.686291 165.77002 42 165.77002 Z"/>
        <text id="Data-Pipeline" xml:space="preserve" x="62.310547" y="187" font-family="Helvetica" font-size="12" fill="#0f6e56">Data Pipeline</text>
    </g>
    <g id="g6">
        <path id="path7" fill="#e1f5ee" stroke="#0f6e56" stroke-width="0.5" d="M 182 165.77002 L 306 165.77002 C 309.313721 165.77002 312 168.456299 312 171.77002 L 312 191.77002 C 312 195.083679 309.313721 197.77002 306 197.77002 L 182 197.77002 C 178.686295 197.77002 176 195.083679 176 191.77002 L 176 171.77002 C 176 168.456299 178.686295 165.77002 182 165.77002 Z"/>
        <text id="Streaming-Kafka" xml:space="preserve" x="194.648438" y="187" font-family="Helvetica" font-size="12" fill="#0f6e56">Streaming (Kafka)</text>
    </g>
    <g id="g7">
        <path id="path8" fill="#faeeda" stroke="#854f0b" d="M 42 207.77002 L 158 207.77002 C 161.313705 207.77002 164 210.456299 164 213.77002 L 164 233.77002 C 164 237.083679 161.313705 239.77002 158 239.77002 L 42 239.77002 C 38.686291 239.77002 36 237.083679 36 233.77002 L 36 213.77002 C 36 210.456299 38.686291 207.77002 42 207.77002 Z"/>
        <text id="dbt--Data-Quality" xml:space="preserve" x="50.806641" y="229" font-family="Helvetica" font-size="12" fill="#854f0b">dbt + Data Quality</text>
    </g>
    <g id="g8">
        <path id="path9" fill="#e1f5ee" stroke="#0f6e56" stroke-width="0.5" d="M 182 207.77002 L 306 207.77002 C 309.313721 207.77002 312 210.456299 312 213.77002 L 312 233.77002 C 312 237.083679 309.313721 239.77002 306 239.77002 L 182 239.77002 C 178.686295 239.77002 176 237.083679 176 233.77002 L 176 213.77002 C 176 210.456299 178.686295 207.77002 182 207.77002 Z"/>
        <text id="Data-Contracts" xml:space="preserve" x="202.983398" y="229" font-family="Helvetica" font-size="12" fill="#0f6e56">Data Contracts</text>
    </g>
    <g id="g9">
        <path id="path10" fill="#e6f1fb" stroke="#185fa5" stroke-width="0.5" d="M 350 49.77002 L 646 49.77002 C 651.522827 49.77002 656 54.247131 656 59.77002 L 656 259.77002 C 656 265.292847 651.522827 269.77002 646 269.77002 L 350 269.77002 C 344.477142 269.77002 340 265.292847 340 259.77002 L 340 59.77002 C 340 54.247131 344.477142 49.77002 350 49.77002 Z"/>
        <text id="Cloud-Platform" xml:space="preserve" x="450.703613" y="74" font-family="Helvetica" font-size="14" fill="#0c447c">Cloud Platform</text>
    </g>
    <g id="g10">
        <path id="path11" fill="#e6f1fb" stroke="#185fa5" stroke-width="0.5" d="M 358 81.77002 L 486 81.77002 C 489.313721 81.77002 492 84.456299 492 87.77002 L 492 107.77002 C 492 111.083679 489.313721 113.77002 486 113.77002 L 358 113.77002 C 354.686279 113.77002 352 111.083679 352 107.77002 L 352 87.77002 C 352 84.456299 354.686279 81.77002 358 81.77002 Z"/>
        <text id="GCP-BigQuery--GCS" xml:space="preserve" x="357.589844" y="103" font-family="Helvetica" font-size="12" fill="#185fa5">GCP (BigQuery + GCS)</text>
    </g>
    <g id="g11">
        <path id="path12" fill="#e6f1fb" stroke="#185fa5" stroke-width="0.5" d="M 510 81.77002 L 638 81.77002 C 641.313721 81.77002 644 84.456299 644 87.77002 L 644 107.77002 C 644 111.083679 641.313721 113.77002 638 113.77002 L 510 113.77002 C 506.686279 113.77002 504 111.083679 504 107.77002 L 504 87.77002 C 504 84.456299 506.686279 81.77002 510 81.77002 Z"/>
        <text id="AWS-S3--Glue" xml:space="preserve" x="526.039063" y="103" font-family="Helvetica" font-size="12" fill="#185fa5">AWS (S3 + Glue)</text>
    </g>
    <g id="g12">
        <path id="path13" fill="#e6f1fb" stroke="#185fa5" stroke-width="0.5" d="M 358 123.77002 L 638 123.77002 C 641.313721 123.77002 644 126.456299 644 129.77002 L 644 149.77002 C 644 153.083679 641.313721 155.77002 638 155.77002 L 358 155.77002 C 354.686279 155.77002 352 153.083679 352 149.77002 L 352 129.77002 C 352 126.456299 354.686279 123.77002 358 123.77002 Z"/>
        <text id="Certifications-AWS-SAA-" xml:space="preserve" x="387.50293" y="148" font-family="Helvetica" font-size="12" fill="#185fa5">Certifications: AWS SAA → DE Associate</text>
    </g>
    <g id="g13">
        <path id="path14" fill="#e6f1fb" stroke="#185fa5" stroke-width="0.5" d="M 358 165.77002 L 486 165.77002 C 489.313721 165.77002 492 168.456299 492 171.77002 L 492 191.77002 C 492 195.083679 489.313721 197.77002 486 197.77002 L 358 197.77002 C 354.686279 197.77002 352 195.083679 352 191.77002 L 352 171.77002 C 352 168.456299 354.686279 165.77002 358 165.77002 Z"/>
        <text id="MLOps-fundamentals" xml:space="preserve" x="363.970703" y="187" font-family="Helvetica" font-size="12" fill="#185fa5">MLOps fundamentals</text>
    </g>
    <g id="g14">
        <path id="path15" fill="#e6f1fb" stroke="#185fa5" stroke-width="0.5" d="M 510 165.77002 L 638 165.77002 C 641.313721 165.77002 644 168.456299 644 171.77002 L 644 191.77002 C 644 195.083679 641.313721 197.77002 638 197.77002 L 510 197.77002 C 506.686279 197.77002 504 195.083679 504 191.77002 L 504 171.77002 C 504 168.456299 506.686279 165.77002 510 165.77002 Z"/>
        <text id="Docker--K8s" xml:space="preserve" x="536.818359" y="187" font-family="Helvetica" font-size="12" fill="#185fa5">Docker + K8s</text>
    </g>
    <g id="g15">
        <path id="path16" fill="#e6f1fb" stroke="#185fa5" stroke-width="0.5" d="M 358 207.77002 L 486 207.77002 C 489.313721 207.77002 492 210.456299 492 213.77002 L 492 233.77002 C 492 237.083679 489.313721 239.77002 486 239.77002 L 358 239.77002 C 354.686279 239.77002 352 237.083679 352 233.77002 L 352 213.77002 C 352 210.456299 354.686279 207.77002 358 207.77002 Z"/>
        <text id="Linux--Git-" xml:space="preserve" x="372.307617" y="229" font-family="Helvetica" font-size="12" fill="#185fa5">Linux + Git + SQL</text>
    </g>
    <g id="g16">
        <path id="path17" fill="#e6f1fb" stroke="#185fa5" stroke-width="0.5" d="M 510 207.77002 L 638 207.77002 C 641.313721 207.77002 644 210.456299 644 213.77002 L 644 233.77002 C 644 237.083679 641.313721 239.77002 638 239.77002 L 510 239.77002 C 506.686279 239.77002 504 237.083679 504 233.77002 L 504 213.77002 C 504 210.456299 506.686279 207.77002 510 207.77002 Z"/>
        <text id="Python--Networking" xml:space="preserve" x="516.470703" y="229" font-family="Helvetica" font-size="12" fill="#185fa5">Python + Networking</text>
    </g>
    <text id="LAYER-2--" xml:space="preserve" x="223.907471" y="308" font-family="Helvetica" font-size="13" fill="#3d3d3a">LAYER 2 · 职业扩展能力 · 差异化竞争力</text>
    <path id="path18" fill="#1f1e1d" fill-opacity="0.14902" stroke="none" d="M 21 311.77002 L 659 311.77002 C 659.552307 311.77002 660 312.217712 660 312.77002 L 660 312.77002 C 660 313.322266 659.552307 313.77002 659 313.77002 L 21 313.77002 C 20.447716 313.77002 20 313.322266 20 312.77002 L 20 312.77002 C 20 312.217712 20.447716 311.77002 21 311.77002 Z"/>
    <g id="g17">
        <path id="path19" fill="#eeedfe" stroke="#534ab7" stroke-width="0.5" d="M 34 321.77002 L 210 321.77002 C 215.522842 321.77002 220 326.247131 220 331.77002 L 220 519.77002 C 220 525.292847 215.522842 529.77002 210 529.77002 L 34 529.77002 C 28.477152 529.77002 24 525.292847 24 519.77002 L 24 331.77002 C 24 326.247131 28.477152 321.77002 34 321.77002 Z"/>
        <text id="RAG-" xml:space="preserve" x="77.224121" y="350" font-family="Helvetica" font-size="14" fill="#3c3489">RAG (最实用)</text>
    </g>
    <g id="g18">
        <path id="path20" fill="#eeedfe" stroke="#534ab7" stroke-width="0.5" d="M 42 353.77002 L 202 353.77002 C 205.313705 353.77002 208 356.456299 208 359.77002 L 208 377.77002 C 208 381.08374 205.313705 383.77002 202 383.77002 L 42 383.77002 C 38.686291 383.77002 36 381.08374 36 377.77002 L 36 359.77002 C 36 356.456299 38.686291 353.77002 42 353.77002 Z"/>
        <text id="Chunking--Embedding" xml:space="preserve" x="57.457031" y="374" font-family="Helvetica" font-size="12" fill="#534ab7">Chunking + Embedding</text>
    </g>
    <g id="g19">
        <path id="path21" fill="#eeedfe" stroke="#534ab7" stroke-width="0.5" d="M 42 393.77002 L 202 393.77002 C 205.313705 393.77002 208 396.456299 208 399.77002 L 208 417.77002 C 208 421.08374 205.313705 423.77002 202 423.77002 L 42 423.77002 C 38.686291 423.77002 36 421.08374 36 417.77002 L 36 399.77002 C 36 396.456299 38.686291 393.77002 42 393.77002 Z"/>
        <text id="Vector-DB-QdrantMilvus" xml:space="preserve" x="50.311523" y="414" font-family="Helvetica" font-size="12" fill="#534ab7">Vector DB (Qdrant/Milvus)</text>
    </g>
    <g id="g20">
        <path id="path22" fill="#eeedfe" stroke="#534ab7" stroke-width="0.5" d="M 42 433.77002 L 202 433.77002 C 205.313705 433.77002 208 436.456299 208 439.77002 L 208 457.77002 C 208 461.08374 205.313705 463.77002 202 463.77002 L 42 463.77002 C 38.686291 463.77002 36 461.08374 36 457.77002 L 36 439.77002 C 36 436.456299 38.686291 433.77002 42 433.77002 Z"/>
        <text id="Hybrid-Search--Reranking" xml:space="preserve" x="48.797852" y="454" font-family="Helvetica" font-size="12" fill="#534ab7">Hybrid Search + Reranking</text>
    </g>
    <g id="g21">
        <path id="path23" fill="#eeedfe" stroke="#534ab7" stroke-width="0.5" d="M 42 473.769989 L 202 473.769989 C 205.313705 473.769989 208 476.456268 208 479.769989 L 208 497.769989 C 208 501.08371 205.313705 503.769989 202 503.769989 L 42 503.769989 C 38.686291 503.769989 36 501.08371 36 497.769989 L 36 479.769989 C 36 476.456268 38.686291 473.769989 42 473.769989 Z"/>
        <text id="Evaluation--GraphRAG" xml:space="preserve" x="55.464844" y="494" font-family="Helvetica" font-size="12" fill="#534ab7">Evaluation + GraphRAG</text>
    </g>
    <g id="g22">
        <path id="path24" fill="#eeedfe" stroke="#534ab7" stroke-width="0.5" d="M 246 321.77002 L 422 321.77002 C 427.522858 321.77002 432 326.247131 432 331.77002 L 432 519.77002 C 432 525.292847 427.522858 529.77002 422 529.77002 L 246 529.77002 C 240.477158 529.77002 236 525.292847 236 519.77002 L 236 331.77002 C 236 326.247131 240.477158 321.77002 246 321.77002 Z"/>
        <text id="AI-Agents" xml:space="preserve" x="302.03125" y="346" font-family="Helvetica" font-size="14" fill="#3c3489">AI Agents</text>
    </g>
    <g id="g23">
        <path id="path25" fill="#eeedfe" stroke="#534ab7" stroke-width="0.5" d="M 254 353.77002 L 414 353.77002 C 417.313721 353.77002 420 356.456299 420 359.77002 L 420 377.77002 C 420 381.08374 417.313721 383.77002 414 383.77002 L 254 383.77002 C 250.686295 383.77002 248 381.08374 248 377.77002 L 248 359.77002 C 248 356.456299 250.686295 353.77002 254 353.77002 Z"/>
        <text id="MCP--Function-Calling" xml:space="preserve" x="269.912109" y="374" font-family="Helvetica" font-size="12" fill="#534ab7">MCP + Function Calling</text>
    </g>
    <g id="g24">
        <path id="path26" fill="#eeedfe" stroke="#534ab7" stroke-width="0.5" d="M 254 393.77002 L 414 393.77002 C 417.313721 393.77002 420 396.456299 420 399.77002 L 420 417.77002 C 420 421.08374 417.313721 423.77002 414 423.77002 L 254 423.77002 C 250.686295 423.77002 248 421.08374 248 417.77002 L 248 399.77002 C 248 396.456299 250.686295 393.77002 254 393.77002 Z"/>
        <text id="LangChain--LangGraph" xml:space="preserve" x="266.114258" y="414" font-family="Helvetica" font-size="12" fill="#534ab7">LangChain + LangGraph</text>
    </g>
    <g id="g25">
        <path id="path27" fill="#eeedfe" stroke="#534ab7" stroke-width="0.5" d="M 254 433.77002 L 414 433.77002 C 417.313721 433.77002 420 436.456299 420 439.77002 L 420 457.77002 C 420 461.08374 417.313721 463.77002 414 463.77002 L 254 463.77002 C 250.686295 463.77002 248 461.08374 248 457.77002 L 248 439.77002 C 248 436.456299 250.686295 433.77002 254 433.77002 Z"/>
        <text id="Multi-Agent-CrewAI" xml:space="preserve" x="276.321289" y="454" font-family="Helvetica" font-size="12" fill="#534ab7">Multi-Agent (CrewAI)</text>
    </g>
    <g id="g26">
        <path id="path28" fill="#eeedfe" stroke="#534ab7" stroke-width="0.5" d="M 254 473.769989 L 414 473.769989 C 417.313721 473.769989 420 476.456268 420 479.769989 L 420 497.769989 C 420 501.08371 417.313721 503.769989 414 503.769989 L 254 503.769989 C 250.686295 503.769989 248 501.08371 248 497.769989 L 248 479.769989 C 248 476.456268 250.686295 473.769989 254 473.769989 Z"/>
        <text id="Data-pipeline-agents" xml:space="preserve" x="277.293945" y="494" font-family="Helvetica" font-size="12" fill="#534ab7">Data pipeline agents</text>
    </g>
    <g id="g27">
        <path id="path29" fill="#faece7" stroke="#993c1d" stroke-width="0.5" d="M 458 321.77002 L 646 321.77002 C 651.522827 321.77002 656 326.247131 656 331.77002 L 656 519.77002 C 656 525.292847 651.522827 529.77002 646 529.77002 L 458 529.77002 C 452.477142 529.77002 448 525.292847 448 519.77002 L 448 331.77002 C 448 326.247131 452.477142 321.77002 458 321.77002 Z"/>
        <text id="ML-for-DE" xml:space="preserve" x="519.749512" y="346" font-family="Helvetica" font-size="14" fill="#712b13">ML for DE</text>
    </g>
    <g id="g28">
        <path id="path30" fill="#faece7" stroke="#993c1d" stroke-width="0.5" d="M 466 353.77002 L 638 353.77002 C 641.313721 353.77002 644 356.456299 644 359.77002 L 644 377.77002 C 644 381.08374 641.313721 383.77002 638 383.77002 L 466 383.77002 C 462.686279 383.77002 460 381.08374 460 377.77002 L 460 359.77002 C 460 356.456299 462.686279 353.77002 466 353.77002 Z"/>
        <text id="BigQuery-ML-BQML" xml:space="preserve" x="493.540039" y="374" font-family="Helvetica" font-size="12" fill="#993c1d">BigQuery ML (BQML)</text>
    </g>
    <g id="g29">
        <path id="path31" fill="#faece7" stroke="#993c1d" stroke-width="0.5" d="M 466 393.77002 L 638 393.77002 C 641.313721 393.77002 644 396.456299 644 399.77002 L 644 417.77002 C 644 421.08374 641.313721 423.77002 638 423.77002 L 466 423.77002 C 462.686279 423.77002 460 421.08374 460 417.77002 L 460 399.77002 C 460 396.456299 462.686279 393.77002 466 393.77002 Z"/>
        <text id="Vertex-AI-Pipelines" xml:space="preserve" x="500.963867" y="414" font-family="Helvetica" font-size="12" fill="#993c1d">Vertex AI Pipelines</text>
    </g>
    <g id="g30">
        <path id="path32" fill="#faece7" stroke="#993c1d" stroke-width="0.5" d="M 466 433.77002 L 638 433.77002 C 641.313721 433.77002 644 436.456299 644 439.77002 L 644 457.77002 C 644 461.08374 641.313721 463.77002 638 463.77002 L 466 463.77002 C 462.686279 463.77002 460 461.08374 460 457.77002 L 460 439.77002 C 460 436.456299 462.686279 433.77002 466 433.77002 Z"/>
        <text id="Feature-Store-" xml:space="preserve" x="500.647461" y="458" font-family="Helvetica" font-size="12" fill="#993c1d">Feature Store 概念</text>
    </g>
    <g id="g31">
        <path id="path33" fill="#faece7" stroke="#993c1d" stroke-width="0.5" d="M 466 473.769989 L 638 473.769989 C 641.313721 473.769989 644 476.456268 644 479.769989 L 644 497.769989 C 644 501.08371 641.313721 503.769989 638 503.769989 L 466 503.769989 C 462.686279 503.769989 460 501.08371 460 497.769989 L 460 479.769989 C 460 476.456268 462.686279 473.769989 466 473.769989 Z"/>
        <text id="Evaluation--Monitoring" xml:space="preserve" x="487.128906" y="494" font-family="Helvetica" font-size="12" fill="#993c1d">Evaluation + Monitoring</text>
    </g>
    <text id="LAYER-3--" xml:space="preserve" x="223.907471" y="572" font-family="Helvetica" font-size="13" fill="#3d3d3a">LAYER 3 · 背景知识 · 按需深入，不优先</text>
    <path id="path34" fill="#1f1e1d" fill-opacity="0.14902" stroke="none" d="M 21 575.77002 L 659 575.77002 C 659.552307 575.77002 660 576.217651 660 576.77002 L 660 576.77002 C 660 577.322266 659.552307 577.77002 659 577.77002 L 21 577.77002 C 20.447716 577.77002 20 577.322266 20 576.77002 L 20 576.77002 C 20 576.217651 20.447716 575.77002 21 575.77002 Z"/>
    <g id="g32">
        <path id="path35" fill="#f1efe8" stroke="#5f5e5a" stroke-width="0.5" d="M 34 585.77002 L 210 585.77002 C 215.522842 585.77002 220 590.247192 220 595.77002 L 220 723.77002 C 220 729.292847 215.522842 733.77002 210 733.77002 L 34 733.77002 C 28.477152 733.77002 24 729.292847 24 723.77002 L 24 595.77002 C 24 590.247192 28.477152 585.77002 34 585.77002 Z"/>
        <text id="ML-Fundamentals" xml:space="preserve" x="64.229004" y="610" font-family="Helvetica" font-size="14" fill="#444441">ML Fundamentals</text>
    </g>
    <g id="g33">
        <path id="path36" fill="#f1efe8" stroke="#5f5e5a" stroke-width="0.5" d="M 42 617.77002 L 202 617.77002 C 205.313705 617.77002 208 620.456299 208 623.77002 L 208 639.77002 C 208 643.08374 205.313705 645.77002 202 645.77002 L 42 645.77002 C 38.686291 645.77002 36 643.08374 36 639.77002 L 36 623.77002 C 36 620.456299 38.686291 617.77002 42 617.77002 Z"/>
        <text id="Regression--Classification" xml:space="preserve" x="49.303711" y="638" font-family="Helvetica" font-size="12" fill="#5f5e5a">Regression / Classification</text>
    </g>
    <g id="g34">
        <path id="path37" fill="#f1efe8" stroke="#5f5e5a" stroke-width="0.5" d="M 42 655.77002 L 202 655.77002 C 205.313705 655.77002 208 658.456299 208 661.77002 L 208 677.77002 C 208 681.08374 205.313705 683.77002 202 683.77002 L 42 683.77002 C 38.686291 683.77002 36 681.08374 36 677.77002 L 36 661.77002 C 36 658.456299 38.686291 655.77002 42 655.77002 Z"/>
        <text id="Clustering--Evaluation" xml:space="preserve" x="60.967773" y="676" font-family="Helvetica" font-size="12" fill="#5f5e5a">Clustering / Evaluation</text>
    </g>
    <g id="g35">
        <path id="path38" fill="#f1efe8" stroke="#5f5e5a" stroke-width="0.5" d="M 42 693.77002 L 202 693.77002 C 205.313705 693.77002 208 696.456299 208 699.77002 L 208 715.77002 C 208 719.08374 205.313705 721.77002 202 721.77002 L 42 721.77002 C 38.686291 721.77002 36 719.08374 36 715.77002 L 36 699.77002 C 36 696.456299 38.686291 693.77002 42 693.77002 Z"/>
        <text id="-" xml:space="preserve" x="64.333008" y="718" font-family="Helvetica" font-size="12" fill="#5f5e5a">→ 够用即可，不深挖</text>
    </g>
    <g id="g36">
        <path id="path39" fill="#f1efe8" stroke="#5f5e5a" stroke-width="0.5" d="M 246 585.77002 L 422 585.77002 C 427.522858 585.77002 432 590.247192 432 595.77002 L 432 723.77002 C 432 729.292847 427.522858 733.77002 422 733.77002 L 246 733.77002 C 240.477158 733.77002 236 729.292847 236 723.77002 L 236 595.77002 C 236 590.247192 240.477158 585.77002 246 585.77002 Z"/>
        <text id="LLM--DL-" xml:space="preserve" x="288.911621" y="614" font-family="Helvetica" font-size="14" fill="#444441">LLM / DL 基础</text>
    </g>
    <g id="g37">
        <path id="path40" fill="#f1efe8" stroke="#5f5e5a" stroke-width="0.5" d="M 254 617.77002 L 414 617.77002 C 417.313721 617.77002 420 620.456299 420 623.77002 L 420 639.77002 C 420 643.08374 417.313721 645.77002 414 645.77002 L 254 645.77002 C 250.686295 645.77002 248 643.08374 248 639.77002 L 248 623.77002 C 248 620.456299 250.686295 617.77002 254 617.77002 Z"/>
        <text id="Transformer--Attention" xml:space="preserve" x="271.191406" y="638" font-family="Helvetica" font-size="12" fill="#5f5e5a">Transformer / Attention</text>
    </g>
    <g id="g38">
        <path id="path41" fill="#f1efe8" stroke="#5f5e5a" stroke-width="0.5" d="M 254 655.77002 L 414 655.77002 C 417.313721 655.77002 420 658.456299 420 661.77002 L 420 677.77002 C 420 681.08374 417.313721 683.77002 414 683.77002 L 254 683.77002 C 250.686295 683.77002 248 681.08374 248 677.77002 L 248 661.77002 C 248 658.456299 250.686295 655.77002 254 655.77002 Z"/>
        <text id="Embedding--Tokenization" xml:space="preserve" x="263.395508" y="676" font-family="Helvetica" font-size="12" fill="#5f5e5a">Embedding / Tokenization</text>
    </g>
    <g id="g39">
        <path id="path42" fill="#f1efe8" stroke="#5f5e5a" stroke-width="0.5" d="M 254 693.77002 L 414 693.77002 C 417.313721 693.77002 420 696.456299 420 699.77002 L 420 715.77002 C 420 719.08374 417.313721 721.77002 414 721.77002 L 254 721.77002 C 250.686295 721.77002 248 719.08374 248 715.77002 L 248 699.77002 C 248 696.456299 250.686295 693.77002 254 693.77002 Z"/>
        <text id="LoRA--Quant-" xml:space="preserve" x="270.306641" y="718" font-family="Helvetica" font-size="12" fill="#5f5e5a">LoRA / Quant 了解即可</text>
    </g>
    <g id="g40">
        <path id="path43" fill="#f1efe8" stroke="#5f5e5a" stroke-width="0.5" d="M 458 585.77002 L 646 585.77002 C 651.522827 585.77002 656 590.247192 656 595.77002 L 656 723.77002 C 656 729.292847 651.522827 733.77002 646 733.77002 L 458 733.77002 C 452.477142 733.77002 448 729.292847 448 723.77002 L 448 595.77002 C 448 590.247192 452.477142 585.77002 458 585.77002 Z"/>
        <text id="NLP-" xml:space="preserve" x="521.561035" y="614" font-family="Helvetica" font-size="14" fill="#444441">NLP 应用</text>
    </g>
    <g id="g41">
        <path id="path44" fill="#f1efe8" stroke="#5f5e5a" stroke-width="0.5" d="M 466 617.77002 L 638 617.77002 C 641.313721 617.77002 644 620.456299 644 623.77002 L 644 639.77002 C 644 643.08374 641.313721 645.77002 638 645.77002 L 466 645.77002 C 462.686279 645.77002 460 643.08374 460 639.77002 L 460 623.77002 C 460 620.456299 462.686279 617.77002 466 617.77002 Z"/>
        <text id="Text-Classification--NER" xml:space="preserve" x="484.313477" y="638" font-family="Helvetica" font-size="12" fill="#5f5e5a">Text Classification / NER</text>
    </g>
    <g id="g42">
        <path id="path45" fill="#f1efe8" stroke="#5f5e5a" stroke-width="0.5" d="M 466 655.77002 L 638 655.77002 C 641.313721 655.77002 644 658.456299 644 661.77002 L 644 677.77002 C 644 681.08374 641.313721 683.77002 638 683.77002 L 466 683.77002 C 462.686279 683.77002 460 681.08374 460 677.77002 L 460 661.77002 C 460 658.456299 462.686279 655.77002 466 655.77002 Z"/>
        <text id="Summarization" xml:space="preserve" x="510.986328" y="676" font-family="Helvetica" font-size="12" fill="#5f5e5a">Summarization</text>
    </g>
    <g id="g43">
        <path id="path46" fill="#f1efe8" stroke="#5f5e5a" stroke-width="0.5" d="M 466 693.77002 L 638 693.77002 C 641.313721 693.77002 644 696.456299 644 699.77002 L 644 715.77002 C 644 719.08374 641.313721 721.77002 638 721.77002 L 466 721.77002 C 462.686279 721.77002 460 719.08374 460 715.77002 L 460 699.77002 C 460 696.456299 462.686279 693.77002 466 693.77002 Z"/>
        <text id="--RAG-" xml:space="preserve" x="496.99707" y="718" font-family="Helvetica" font-size="12" fill="#5f5e5a">→ 服务于 RAG 构建</text>
    </g>
</svg>
